<svg width="660" height="172" viewBox="0 0 660 172" fill="none" xmlns="http://www.w3.org/2000/svg">
<rect width="660" height="172" rx="19" fill="white"/>
<path d="M299.027 141H292.641V124.09H299.051C301.945 124.09 303.902 125.777 303.902 128.309C303.902 130.066 302.613 131.707 300.984 132V132.094C303.281 132.387 304.758 134.004 304.758 136.254C304.758 139.23 302.625 141 299.027 141ZM294.75 125.953V131.379H297.914C300.41 131.379 301.77 130.383 301.77 128.555C301.77 126.879 300.621 125.953 298.57 125.953H294.75ZM294.75 139.137H298.711C301.254 139.137 302.59 138.105 302.59 136.148C302.59 134.191 301.207 133.195 298.512 133.195H294.75V139.137ZM306.832 141V128.812H308.754V130.805H308.801C309.199 129.457 310.324 128.602 311.754 128.602C312.105 128.602 312.41 128.66 312.574 128.684V130.664C312.41 130.605 311.977 130.547 311.484 130.547C309.902 130.547 308.871 131.684 308.871 133.406V141H306.832ZM318.539 130.371C316.629 130.371 315.293 131.836 315.164 133.863H321.785C321.738 131.824 320.461 130.371 318.539 130.371ZM321.738 137.508H323.742C323.391 139.641 321.328 141.211 318.668 141.211C315.176 141.211 313.055 138.785 313.055 134.953C313.055 131.168 315.211 128.602 318.574 128.602C321.867 128.602 323.895 130.992 323.895 134.684V135.457H315.152V135.574C315.152 137.906 316.523 139.441 318.715 139.441C320.262 139.441 321.398 138.656 321.738 137.508ZM329.977 139.477C331.898 139.477 333.375 138.129 333.375 136.371V135.375L330.117 135.574C328.477 135.68 327.539 136.406 327.539 137.555C327.539 138.715 328.512 139.477 329.977 139.477ZM329.52 141.211C327.094 141.211 325.465 139.746 325.465 137.555C325.465 135.469 327.07 134.156 329.883 133.992L333.375 133.793V132.773C333.375 131.285 332.391 130.395 330.703 130.395C329.133 130.395 328.148 131.133 327.891 132.328H325.922C326.062 130.219 327.867 128.602 330.75 128.602C333.609 128.602 335.414 130.148 335.414 132.574V141H333.48V138.902H333.434C332.707 140.297 331.16 141.211 329.52 141.211ZM338.66 125.871H340.699V128.812H343.066V130.488H340.699V137.73C340.699 138.844 341.168 139.348 342.211 139.348C342.445 139.348 342.914 139.312 343.055 139.289V141C342.809 141.059 342.246 141.094 341.766 141.094C339.527 141.094 338.66 140.18 338.66 137.836V130.488H336.844V128.812H338.66V125.871ZM345.352 141V124.09H347.391V130.758H347.438C348.117 129.398 349.453 128.602 351.305 128.602C353.977 128.602 355.594 130.406 355.594 133.125V141H353.555V133.5C353.555 131.566 352.582 130.406 350.672 130.406C348.645 130.406 347.391 131.789 347.391 133.898V141H345.352ZM363.07 130.371C361.16 130.371 359.824 131.836 359.695 133.863H366.316C366.27 131.824 364.992 130.371 363.07 130.371ZM366.27 137.508H368.273C367.922 139.641 365.859 141.211 363.199 141.211C359.707 141.211 357.586 138.785 357.586 134.953C357.586 131.168 359.742 128.602 363.105 128.602C366.398 128.602 368.426 130.992 368.426 134.684V135.457H359.684V135.574C359.684 137.906 361.055 139.441 363.246 139.441C364.793 139.441 365.93 138.656 366.27 137.508Z" fill="black"/>
<circle cx="320.58" cy="18.9727" r="4.1" fill="white"/>
<circle opacity="0.22" cx="428.663" cy="153.5" r="2.5" fill="white"/>
<circle opacity="0.36" cx="273.112" cy="154" r="3" fill="white"/>
<path d="M327.597 26.0384C326.317 26.1326 325.3 26.2696 324.359 26.475C319.775 27.5025 315.793 29.8142 313.025 33.0592C308.94 37.8367 306.785 44.2667 306.041 53.8218C305.984 54.5753 305.909 58.0258 305.862 61.4848C305.777 68.1888 305.73 69.0535 305.241 71.7762C304.318 76.9819 302.483 80.0299 298.943 82.2389C297.767 82.9752 297.607 83.1122 297.371 83.5318C296.778 84.5763 297.513 85.8948 298.83 86.1346C299.659 86.2887 300.318 86.0404 301.89 84.9702C305.26 82.6756 307.566 79.3107 308.733 74.9869C309.599 71.7762 309.919 68.2658 309.919 61.9557C309.91 59.644 309.957 56.8956 310.004 55.8339C310.427 47.409 311.934 41.6125 314.823 37.2545C317.647 32.9821 321.836 30.4649 327.061 29.8827C328.322 29.7457 331.711 29.8228 332.878 30.0197C341.303 31.4238 346.546 37.7682 348.269 48.659C348.852 52.3663 349.069 55.8938 349.069 61.6988C349.069 64.002 349.116 66.5278 349.163 67.3069C349.718 75.5007 351.497 80.0727 355.526 83.6859C356.458 84.5164 357.983 85.5866 358.745 85.9377C359.103 86.1003 359.386 86.1688 359.753 86.1688C361.475 86.1688 362.483 84.328 361.391 83.1893C361.231 83.0266 360.713 82.6413 360.242 82.3416C359.066 81.5882 358.228 80.946 357.71 80.3981C355.225 77.7353 354.048 74.7044 353.389 69.2333C353.22 67.812 353.182 66.8103 353.116 61.1851C353.041 54.9349 352.994 53.7534 352.693 50.9108C352.015 44.575 350.255 39.1381 347.591 35.1568C346.377 33.3588 344.475 31.3211 342.903 30.1738C339.947 28.0076 336.144 26.5435 332.36 26.1326C331.221 26.0041 328.717 25.9613 327.597 26.0384Z" fill="black"/>
<path d="M310.239 90.6123C309.938 90.6808 309.693 90.8691 309.063 91.4856C305.354 95.1073 302.191 97.3163 298.096 99.1571C296.157 100.022 294.717 100.553 293.107 100.998C290.537 101.709 289.144 101.974 286.81 102.197C285.304 102.342 284.814 102.505 284.4 103.027C283.826 103.746 283.873 104.714 284.522 105.382C285.144 106.024 285.878 106.127 288.09 105.87C292.486 105.356 296.477 104.217 300.591 102.299C304.234 100.596 308.488 97.6074 311.275 94.7905C312.527 93.5233 312.715 93.2751 312.847 92.71C313.044 91.811 312.451 90.8948 311.482 90.638C310.945 90.4924 310.776 90.4924 310.239 90.6123Z" fill="black"/>
<path d="M347.657 90.5867C346.678 90.8779 346.151 91.5029 346.151 92.3676C346.16 92.9755 346.414 93.3951 347.384 94.3797C351.121 98.1555 355.394 101.092 359.828 102.942C361.504 103.635 363.81 104.44 365.165 104.791C368.356 105.63 372.649 106.204 373.59 105.921C373.788 105.861 374.136 105.664 374.353 105.476C375.2 104.765 375.237 103.644 374.447 102.856C374.051 102.454 373.59 102.317 372.188 102.188C366.361 101.649 360.289 99.4398 355.423 96.0749C353.474 94.7393 351.799 93.318 350.274 91.7426C349.859 91.3145 349.361 90.8779 349.153 90.7751C348.758 90.5696 348.024 90.4754 347.657 90.5867Z" fill="black"/>
</svg>
