<?xml version="1.0" encoding="UTF-8"?>
<svg version="1.1" xmlns="http://www.w3.org/2000/svg" width="1024" height="1024">
<path d="M0 0 C1.57126201 -0.00307895 1.57126201 -0.00307895 3.1742667 -0.0062201 C6.68363736 -0.01187364 10.19296858 -0.01043488 13.70234299 -0.00901413 C16.24427102 -0.01159872 18.78619865 -0.01461214 21.32812572 -0.01801753 C27.58121243 -0.02523483 33.83428685 -0.02778963 40.08737724 -0.02834659 C47.57983412 -0.02926211 55.07228316 -0.03593529 62.56473665 -0.04269341 C80.67317466 -0.05873752 98.78161181 -0.06465516 116.89005565 -0.06944216 C125.46179031 -0.07177999 134.0335243 -0.07538288 142.60525844 -0.07913754 C171.96430602 -0.09197247 201.32335324 -0.10269104 230.68240356 -0.10614014 C232.5247115 -0.10636177 234.36701944 -0.10658355 236.20932738 -0.10680549 C238.05601457 -0.10702613 239.90270175 -0.10724661 241.74938893 -0.10746694 C245.45398283 -0.10790948 249.15857673 -0.1083566 252.86317062 -0.10880661 C254.24095193 -0.1089707 254.24095193 -0.1089707 255.64656719 -0.1091381 C285.41376384 -0.11276681 315.18093611 -0.12868016 344.94812343 -0.15199697 C376.44125109 -0.17662048 407.93436483 -0.19031417 439.42750239 -0.19150805 C442.88808108 -0.1916795 446.34865976 -0.19189492 449.80923843 -0.19214249 C450.66129104 -0.19219826 451.51334365 -0.19225402 452.39121604 -0.19231148 C466.07465875 -0.19345982 479.75807635 -0.2044634 493.4415106 -0.21902954 C507.20925421 -0.23343139 520.9769658 -0.23661079 534.74471489 -0.22858956 C542.91210957 -0.22415044 551.07940052 -0.22792466 559.24678147 -0.24382807 C565.36355757 -0.25479993 571.48022816 -0.24988319 577.59700236 -0.2390562 C580.05806114 -0.23710671 582.51913048 -0.24014268 584.98017445 -0.24890056 C646.94212477 -0.45529319 703.63206542 23.66350806 747.61219406 67.19392776 C760.70301371 80.42122118 772.11205654 95.95981379 781.29969406 112.13142776 C781.69011887 112.81656448 782.08054367 113.5017012 782.48279953 114.20759964 C799.37666169 144.20888238 810.49482858 179.20236354 810.43112183 213.8317337 C810.43420078 215.40299572 810.43420078 215.40299572 810.43734193 217.0060004 C810.44299546 220.51537107 810.4415567 224.02470228 810.44013596 227.53407669 C810.44272054 230.07600472 810.44573397 232.61793235 810.44913936 235.15985942 C810.45635666 241.41294613 810.45891146 247.66602055 810.45946841 253.91911094 C810.46038393 261.41156783 810.46705711 268.90401686 810.47381524 276.39647036 C810.48985934 294.50490837 810.49577699 312.61334552 810.50056398 330.72178936 C810.50290182 339.29352402 810.5065047 347.865258 810.51025936 356.43699214 C810.52309429 385.79603972 810.53381287 415.15508694 810.53726196 444.51413727 C810.53748359 446.35644521 810.53770538 448.19875315 810.53792731 450.04106109 C810.53814795 451.88774827 810.53836844 453.73443545 810.53858876 455.58112264 C810.53903131 459.28571653 810.53947842 462.99031043 810.53992844 466.69490433 C810.54003783 467.61342519 810.54014722 468.53194606 810.54025992 469.4783009 C810.54388864 499.24549755 810.55980198 529.01266982 810.5831188 558.77985713 C810.60774231 590.2729848 810.621436 621.76609853 810.62262988 653.2592361 C810.62280133 656.71981478 810.62301675 660.18039346 810.62326431 663.64097214 C810.62332008 664.49302475 810.62337585 665.34507736 810.62343331 666.22294975 C810.62458164 679.90639246 810.63558522 693.58981006 810.65015137 707.2732443 C810.66455322 721.04098792 810.66773262 734.80869951 810.65971139 748.57644859 C810.65527227 756.74384327 810.65904649 764.91113423 810.6749499 773.07851518 C810.68592176 779.19529128 810.68100501 785.31196186 810.67017803 791.42873606 C810.66822854 793.88979484 810.6712645 796.35086419 810.68002239 798.81190816 C810.88641501 860.77385848 786.76761376 917.46379913 743.23719406 961.44392776 C730.00990065 974.53474741 714.47130804 985.94379024 698.29969406 995.13142776 C697.61455734 995.52185257 696.92942062 995.91227737 696.22352219 996.31453323 C666.22223945 1013.20839539 631.22875828 1024.32656228 596.59938812 1024.26285553 C595.55188011 1024.26490816 594.5043721 1024.2669608 593.42512143 1024.26907563 C589.91575076 1024.27472917 586.40641954 1024.27329041 582.89704514 1024.27186966 C580.3551171 1024.27445425 577.81318947 1024.27746767 575.27126241 1024.28087306 C569.01817569 1024.28809036 562.76510127 1024.29064516 556.51201088 1024.29120212 C549.019554 1024.29211764 541.52710497 1024.29879082 534.03465147 1024.30554894 C515.92621346 1024.32159305 497.81777631 1024.32751069 479.70933247 1024.33229769 C471.13759781 1024.33463552 462.56586382 1024.33823841 453.99412969 1024.34199307 C424.6350821 1024.354828 395.27603489 1024.36554657 365.91698456 1024.36899567 C364.07467662 1024.3692173 362.23236868 1024.36943908 360.39006074 1024.36966102 C358.54337355 1024.36988166 356.69668637 1024.37010214 354.84999919 1024.37032247 C351.14540529 1024.37076501 347.4408114 1024.37121213 343.7362175 1024.37166214 C342.3584362 1024.37182623 342.3584362 1024.37182623 340.95282093 1024.37199363 C311.18562428 1024.37562234 281.41845201 1024.39153569 251.65126469 1024.4148525 C220.15813703 1024.43947601 188.6650233 1024.4531697 157.17188573 1024.45436358 C153.71130705 1024.45453503 150.25072837 1024.45475045 146.79014969 1024.45499802 C145.93809708 1024.45505379 145.08604447 1024.45510955 144.20817208 1024.45516701 C130.52472937 1024.45631535 116.84131177 1024.46731893 103.15787752 1024.48188507 C89.39013391 1024.49628692 75.62242232 1024.49946632 61.85467324 1024.49144509 C53.68727855 1024.48700597 45.5199876 1024.49078019 37.35260665 1024.5066836 C31.23583055 1024.51765546 25.11915996 1024.51273872 19.00238577 1024.50191173 C16.54132698 1024.49996224 14.08025764 1024.50299821 11.61921367 1024.51175609 C-50.34273665 1024.71814871 -107.0326773 1000.59934746 -151.01280594 957.06892776 C-164.10362559 943.84163435 -175.51266841 928.30304174 -184.70030594 912.13142776 C-185.09073074 911.44629105 -185.48115555 910.76115433 -185.88341141 910.05525589 C-202.77727356 880.05397315 -213.89544045 845.06049199 -213.8317337 810.43112183 C-213.83378634 809.38361382 -213.83583897 808.33610581 -213.83795381 807.25685513 C-213.84360734 803.74748446 -213.84216858 800.23815325 -213.84074783 796.72877884 C-213.84333242 794.18685081 -213.84634584 791.64492318 -213.84975123 789.10299611 C-213.85696853 782.8499094 -213.85952334 776.59683498 -213.86008029 770.34374459 C-213.86099581 762.8512877 -213.86766899 755.35883867 -213.87442711 747.86638517 C-213.89047122 729.75794716 -213.89638887 711.64951001 -213.90117586 693.54106617 C-213.90351369 684.96933151 -213.90711658 676.39759753 -213.91087124 667.82586339 C-213.92370617 638.46681581 -213.93442475 609.10776859 -213.93787384 579.74871826 C-213.93809547 577.90641032 -213.93831725 576.06410238 -213.93853919 574.22179444 C-213.93875983 572.37510726 -213.93898031 570.52842008 -213.93920064 568.68173289 C-213.93964318 564.977139 -213.9400903 561.2725451 -213.94054031 557.5679512 C-213.9406497 556.64943033 -213.9407591 555.73090947 -213.9408718 554.78455463 C-213.94450052 525.01735798 -213.96041386 495.25018571 -213.98373068 465.4829984 C-214.00835419 433.98987073 -214.02204788 402.496757 -214.02324176 371.00361943 C-214.0234132 367.54304075 -214.02362863 364.08246207 -214.02387619 360.62188339 C-214.02393196 359.76983078 -214.02398773 358.91777817 -214.02404519 358.03990578 C-214.02519352 344.35646307 -214.0361971 330.67304547 -214.05076325 316.98961123 C-214.0651651 303.22186761 -214.06834449 289.45415602 -214.06032327 275.68640694 C-214.05588415 267.51901226 -214.05965836 259.3517213 -214.07556177 251.18434035 C-214.08653364 245.06756425 -214.08161689 238.95089367 -214.0707899 232.83411947 C-214.06884041 230.37306069 -214.07187638 227.91199134 -214.08063427 225.45094737 C-214.28702689 163.48899705 -190.16822564 106.7990564 -146.63780594 62.81892776 C-133.41051253 49.72810812 -117.87191991 38.31906529 -101.70030594 29.13142776 C-101.01516922 28.74100296 -100.3300325 28.35057816 -99.62413406 27.9483223 C-69.62285133 11.05446014 -34.62937016 -0.06370675 0 0 Z " fill="#FEFEFE" transform="translate(213.7003059387207,-0.13142776489257813)"/>
<path d="M0 0 C1.09024475 0.00373123 1.09024475 0.00373123 2.20251465 0.00753784 C39.30068298 0.20367619 71.89843057 13.43731524 98.21484375 39.7109375 C125.01217411 68.06241883 135.45085399 108.44495884 140.5 146.0625 C140.61947998 146.9479248 140.73895996 147.83334961 140.86206055 148.74560547 C142.45632382 161.40043095 142.94393201 174.11963681 143.04229546 186.86393738 C143.05925408 188.98899461 143.0824904 191.11391088 143.10719299 193.2388916 C143.1764907 199.26855928 143.23736467 205.29828281 143.28930664 211.328125 C143.11102044 273.4469003 143.11102044 273.4469003 171.30712891 326.88818359 C176.91073795 332.19007383 183.6253198 336.288414 190.109375 340.40625 C192.8125 342.3125 192.8125 342.3125 194.8125 345.3125 C195.29506365 349.57514558 195.08123267 351.80382744 193.0625 355.625 C189.96699042 359.32241422 188.41733095 360.08782367 183.6875 360.75 C168.98761293 359.09033533 155.10990423 345.20983387 145.8125 334.3125 C133.16963023 318.39184918 126.43790806 299.61395843 122.6875 279.8125 C122.52870361 278.98991699 122.36990723 278.16733398 122.20629883 277.31982422 C118.57784198 256.98443271 118.46803837 236.46234945 118.3125 215.875 C118.18848438 199.59903588 117.96560694 183.37060152 116.89453125 167.125 C116.81638184 165.93358902 116.73823242 164.74217804 116.65771484 163.5146637 C113.7181188 122.55090866 103.91683164 78.01346437 73.31640625 48.453125 C67.87316405 43.79961997 61.6226455 38.5825485 54.8125 36.3125 C54.8125 35.6525 54.8125 34.9925 54.8125 34.3125 C52.79999939 33.64166646 50.78720501 32.97170829 48.7734375 32.3046875 C46.58703821 31.57204183 44.40542356 30.82508136 42.2265625 30.0703125 C11.28842948 19.40322189 -21.85411393 21.02669853 -51.32714844 35.359375 C-77.03116599 48.52846746 -93.77454892 74.09654115 -102.47705078 101.00244141 C-106.52150114 114.15315937 -109.4325789 127.45368878 -111.4375 141.0625 C-111.58848145 142.06958008 -111.73946289 143.07666016 -111.89501953 144.11425781 C-115.18765239 168.30972677 -115.51481074 192.71704729 -115.70318604 217.09222412 C-116.06505216 262.88411175 -116.06505216 262.88411175 -120.4375 283.3125 C-120.65365967 284.34810059 -120.86981934 285.38370117 -121.0925293 286.45068359 C-127.2568481 314.6724954 -142.13851254 339.52804349 -166.6875 355.375 C-172.30080789 358.95560432 -176.36521908 360.88102341 -183.1875 360.3125 C-186.53411055 359.01291079 -189.32296957 357.32111883 -191.6875 354.5625 C-192.50333549 350.89124029 -192.50829169 347.80832676 -191.1875 344.3125 C-187.01193075 339.23674309 -181.06306701 335.81653398 -175.703125 332.1171875 C-155.65192176 317.73262865 -147.81265912 295.31041763 -143.75463867 271.79907227 C-141.54420983 258.04892553 -141.05560772 244.25883286 -140.9765625 230.3515625 C-140.96351132 228.9498931 -140.94968667 227.54823071 -140.93515015 226.14657593 C-140.87495969 220.29895374 -140.82035002 214.45135295 -140.78613281 208.60351562 C-140.59621036 177.80701418 -139.54763227 146.16927112 -132.3125 116.125 C-131.91115845 114.43540161 -131.91115845 114.43540161 -131.50170898 112.71166992 C-128.49579462 100.21797043 -124.79336782 88.72758676 -119.10205078 77.18115234 C-118.21366873 75.36596916 -117.35439874 73.53662825 -116.49609375 71.70703125 C-102.24547759 41.91630002 -77.92995117 18.59334541 -46.69482422 7.42089844 C-44.11953357 6.55416241 -41.53577718 5.73256343 -38.9375 4.9375 C-37.76924683 4.57930176 -37.76924683 4.57930176 -36.57739258 4.21386719 C-24.51339728 0.73935609 -12.47831399 -0.06838753 0 0 Z " fill="#010101" transform="translate(511.1875,272.6875)"/>
<path d="M0 0 C3.99466364 2.71977099 5.63858619 4.26521372 6.625 9 C6.49957392 15.08316472 1.01162425 18.99983753 -3 23 C-3.88171875 23.94101562 -4.7634375 24.88203125 -5.671875 25.8515625 C-41.84805994 64.10077192 -99.77890461 89.8049673 -152.375 91.375 C-157.41073563 91.20924695 -160.70271148 89.58433691 -164.8125 86.75 C-166.79308388 83.83124481 -166.94170327 81.49780396 -167 78 C-165.81126288 74.68088568 -164.25424602 71.80263534 -161.20996094 69.85449219 C-158.56395741 68.831402 -156.14632108 68.47597307 -153.328125 68.140625 C-152.20092041 67.99786133 -151.07371582 67.85509766 -149.91235352 67.70800781 C-148.70377686 67.55686523 -147.4952002 67.40572266 -146.25 67.25 C-96.85385998 60.56667457 -48.76464741 38.76314751 -14.74609375 1.5234375 C-9.87253764 -2.72865843 -5.63901455 -2.25560582 0 0 Z " fill="#010101" transform="translate(407,661)"/>
<path d="M0 0 C4.80413553 2.26246864 8.31926047 6.29667984 11.97045898 10.05419922 C24.03347618 22.4564825 38.04244608 32.37198548 53 41 C53.71317383 41.4134668 54.42634766 41.82693359 55.16113281 42.25292969 C80.85963912 56.94908648 108.82958945 64.96784052 138.09301758 68.62036133 C144.49706073 69.45091491 149.97373584 70.17548679 154.875 74.75 C156.57173606 78.14347212 156.57260179 80.24627713 156 84 C153.59565313 87.8182238 151.32429929 90.5585669 147 92 C139.31904131 92.59396951 131.76313669 91.4712868 124.1875 90.3125 C123.00696045 90.13315918 121.8264209 89.95381836 120.61010742 89.76904297 C104.14457621 87.17571347 88.3770948 83.48029349 73 77 C72.29842773 76.70754395 71.59685547 76.41508789 70.87402344 76.11376953 C45.83553509 65.58913569 23.26601747 52.18059615 3 34 C2.47438477 33.53464844 1.94876953 33.06929687 1.40722656 32.58984375 C-2.12748209 29.45830947 -5.58444417 26.26120856 -9 23 C-9.76054688 22.28972656 -10.52109375 21.57945312 -11.3046875 20.84765625 C-14.59769623 17.50836025 -16.43556665 15.0840261 -16.75 10.3125 C-16.46728467 6.75397446 -15.96565683 5.95661915 -13.625 3 C-9.14017045 -0.41701299 -5.54719819 -0.88719325 0 0 Z " fill="#000000" transform="translate(629,660)"/>
</svg>
